# xmcd
#
# Track frame offsets: 
#        150
#        16323
#        33944
#        49673
#        65673
#        77583
#        90544
#        105845
#        121823
#        136812
#        148563
#
# Disc length: 2134 seconds
#
# Revision: 0
# Processed by: cddbd v1.5.2PL0 Copyright (c) Steve Scherf et al.
# Submitted via: ExactAudioCopy v0.99pb3
#
DISCID=8008540b
DTITLE=Freddie White - Stormy Lullaby
DYEAR=2007
DGENRE=Country
TTITLE0=Old Habits
TTITLE1=Unoriginal Sin
TTITLE2=Tia
TTITLE3=The Boy Talks Tough
TTITLE4=You Don't Know Me
TTITLE5=Love Devine
TTITLE6=Bad News From Home
TTITLE7=Black Books
TTITLE8=Material Mile
TTITLE9=I Think It's Going To Rain Today
TTITLE10=Huggin' and Chalkin'
EXTD=
EXTT0=
EXTT1=
EXTT2=
EXTT3=
EXTT4=
EXTT5=
EXTT6=
EXTT7=
EXTT8=
EXTT9=
EXTT10=
PLAYORDER=
